<mxfile host="app.diagrams.net" agent="Mozilla/5.0 (Windows NT 10.0; Win64; x64) AppleWebKit/537.36 (KHTML, like Gecko) Chrome/126.0.0.0 Safari/537.36" version="24.7.7">
  <diagram name="第 1 页" id="dewy7Ncme_LQQS5vG1y7">
    <mxGraphModel dx="1147" dy="737" grid="1" gridSize="10" guides="1" tooltips="1" connect="1" arrows="1" fold="1" page="1" pageScale="1" pageWidth="827" pageHeight="1169" math="0" shadow="0">
      <root>
        <mxCell id="0" />
        <mxCell id="1" parent="0" />
        <mxCell id="gA8LrhSrSXOZidAthOIC-1" value="" style="group" vertex="1" connectable="0" parent="1">
          <mxGeometry x="60" y="120" width="70" height="540" as="geometry" />
        </mxCell>
        <mxCell id="gA8LrhSrSXOZidAthOIC-2" value="Sass平台" style="rounded=0;whiteSpace=wrap;html=1;fillColor=#d5e8d4;strokeColor=#82b366;" vertex="1" parent="gA8LrhSrSXOZidAthOIC-1">
          <mxGeometry width="70" height="40" as="geometry" />
        </mxCell>
        <mxCell id="gA8LrhSrSXOZidAthOIC-3" value="Sass平台" style="rounded=0;whiteSpace=wrap;html=1;fillColor=#d5e8d4;strokeColor=#82b366;" vertex="1" parent="gA8LrhSrSXOZidAthOIC-1">
          <mxGeometry y="500" width="70" height="40" as="geometry" />
        </mxCell>
        <mxCell id="gA8LrhSrSXOZidAthOIC-4" style="edgeStyle=orthogonalEdgeStyle;rounded=0;orthogonalLoop=1;jettySize=auto;html=1;exitX=0.5;exitY=1;exitDx=0;exitDy=0;entryX=0.5;entryY=0;entryDx=0;entryDy=0;endArrow=none;endFill=0;" edge="1" parent="gA8LrhSrSXOZidAthOIC-1" source="gA8LrhSrSXOZidAthOIC-2" target="gA8LrhSrSXOZidAthOIC-3">
          <mxGeometry relative="1" as="geometry" />
        </mxCell>
        <mxCell id="gA8LrhSrSXOZidAthOIC-5" value="1：下发请求" style="html=1;verticalAlign=bottom;endArrow=block;curved=0;rounded=0;" edge="1" parent="gA8LrhSrSXOZidAthOIC-1">
          <mxGeometry width="80" relative="1" as="geometry">
            <mxPoint x="38" y="80" as="sourcePoint" />
            <mxPoint x="168" y="80" as="targetPoint" />
          </mxGeometry>
        </mxCell>
        <mxCell id="gA8LrhSrSXOZidAthOIC-6" value="结果返回，jobId" style="html=1;verticalAlign=bottom;endArrow=open;dashed=1;endSize=8;curved=0;rounded=0;" edge="1" parent="gA8LrhSrSXOZidAthOIC-1">
          <mxGeometry relative="1" as="geometry">
            <mxPoint x="160" y="480" as="sourcePoint" />
            <mxPoint x="40" y="480" as="targetPoint" />
          </mxGeometry>
        </mxCell>
        <mxCell id="gA8LrhSrSXOZidAthOIC-7" value="" style="group" vertex="1" connectable="0" parent="1">
          <mxGeometry x="170" y="120" width="110" height="540" as="geometry" />
        </mxCell>
        <mxCell id="gA8LrhSrSXOZidAthOIC-8" style="edgeStyle=orthogonalEdgeStyle;rounded=0;orthogonalLoop=1;jettySize=auto;html=1;exitX=0.5;exitY=1;exitDx=0;exitDy=0;entryX=0.5;entryY=0;entryDx=0;entryDy=0;endArrow=block;endFill=0;verticalAlign=bottom;curved=0;" edge="1" parent="gA8LrhSrSXOZidAthOIC-7" source="gA8LrhSrSXOZidAthOIC-9" target="gA8LrhSrSXOZidAthOIC-10">
          <mxGeometry relative="1" as="geometry" />
        </mxCell>
        <mxCell id="gA8LrhSrSXOZidAthOIC-9" value="CV-Perception" style="rounded=0;whiteSpace=wrap;html=1;fillColor=#ffe6cc;strokeColor=#d79b00;" vertex="1" parent="gA8LrhSrSXOZidAthOIC-7">
          <mxGeometry width="110" height="40" as="geometry" />
        </mxCell>
        <mxCell id="gA8LrhSrSXOZidAthOIC-10" value="CV-Perception" style="rounded=0;whiteSpace=wrap;html=1;fillColor=#ffe6cc;strokeColor=#d79b00;" vertex="1" parent="gA8LrhSrSXOZidAthOIC-7">
          <mxGeometry y="500" width="110" height="40" as="geometry" />
        </mxCell>
        <mxCell id="gA8LrhSrSXOZidAthOIC-11" value="2：参数校验" style="html=1;align=left;spacingLeft=2;endArrow=block;rounded=0;edgeStyle=orthogonalEdgeStyle;curved=0;rounded=0;fontSize=12;startSize=8;endSize=8;" edge="1" parent="gA8LrhSrSXOZidAthOIC-7">
          <mxGeometry relative="1" as="geometry">
            <mxPoint x="55" y="87" as="sourcePoint" />
            <Array as="points">
              <mxPoint x="85" y="117" />
            </Array>
            <mxPoint x="55" y="117" as="targetPoint" />
          </mxGeometry>
        </mxCell>
        <mxCell id="gA8LrhSrSXOZidAthOIC-12" value="3.构建图搜上下文" style="html=1;align=left;spacingLeft=2;endArrow=block;rounded=0;edgeStyle=orthogonalEdgeStyle;curved=0;rounded=0;" edge="1" parent="gA8LrhSrSXOZidAthOIC-7">
          <mxGeometry relative="1" as="geometry">
            <mxPoint x="56" y="124" as="sourcePoint" />
            <Array as="points">
              <mxPoint x="86" y="154" />
            </Array>
            <mxPoint x="58" y="154" as="targetPoint" />
          </mxGeometry>
        </mxCell>
        <mxCell id="gA8LrhSrSXOZidAthOIC-16" value="" style="html=1;verticalAlign=bottom;endArrow=block;curved=0;rounded=0;" edge="1" parent="gA8LrhSrSXOZidAthOIC-7">
          <mxGeometry width="80" relative="1" as="geometry">
            <mxPoint x="60" y="261" as="sourcePoint" />
            <mxPoint x="300" y="261" as="targetPoint" />
          </mxGeometry>
        </mxCell>
        <mxCell id="gA8LrhSrSXOZidAthOIC-40" value="jobId以及图搜任务信息保存到Redis中" style="html=1;verticalAlign=bottom;endArrow=block;curved=0;rounded=0;" edge="1" parent="gA8LrhSrSXOZidAthOIC-7">
          <mxGeometry width="80" relative="1" as="geometry">
            <mxPoint x="60" y="330" as="sourcePoint" />
            <mxPoint x="560" y="330" as="targetPoint" />
          </mxGeometry>
        </mxCell>
        <mxCell id="gA8LrhSrSXOZidAthOIC-41" value="图搜结果以及任务状态保存到Redis中" style="html=1;verticalAlign=bottom;endArrow=block;curved=0;rounded=0;" edge="1" parent="gA8LrhSrSXOZidAthOIC-7">
          <mxGeometry width="80" relative="1" as="geometry">
            <mxPoint x="60" y="390" as="sourcePoint" />
            <mxPoint x="560" y="390" as="targetPoint" />
          </mxGeometry>
        </mxCell>
        <mxCell id="gA8LrhSrSXOZidAthOIC-18" value="" style="group" vertex="1" connectable="0" parent="1">
          <mxGeometry x="350" y="120" width="80" height="540" as="geometry" />
        </mxCell>
        <mxCell id="gA8LrhSrSXOZidAthOIC-19" style="edgeStyle=orthogonalEdgeStyle;rounded=0;orthogonalLoop=1;jettySize=auto;html=1;exitX=0.5;exitY=1;exitDx=0;exitDy=0;entryX=0.5;entryY=0;entryDx=0;entryDy=0;endArrow=none;endFill=0;" edge="1" parent="gA8LrhSrSXOZidAthOIC-18" source="gA8LrhSrSXOZidAthOIC-20" target="gA8LrhSrSXOZidAthOIC-21">
          <mxGeometry relative="1" as="geometry" />
        </mxCell>
        <mxCell id="gA8LrhSrSXOZidAthOIC-20" value="MySQL" style="rounded=0;whiteSpace=wrap;html=1;fillColor=#dae8fc;strokeColor=#6c8ebf;" vertex="1" parent="gA8LrhSrSXOZidAthOIC-18">
          <mxGeometry width="80" height="40" as="geometry" />
        </mxCell>
        <mxCell id="gA8LrhSrSXOZidAthOIC-21" value="MySQL" style="rounded=0;whiteSpace=wrap;html=1;fillColor=#dae8fc;strokeColor=#6c8ebf;" vertex="1" parent="gA8LrhSrSXOZidAthOIC-18">
          <mxGeometry y="500" width="80" height="40" as="geometry" />
        </mxCell>
        <mxCell id="gA8LrhSrSXOZidAthOIC-17" value="8.执行图搜" style="html=1;verticalAlign=bottom;endArrow=block;curved=0;rounded=0;" edge="1" parent="gA8LrhSrSXOZidAthOIC-18">
          <mxGeometry width="80" relative="1" as="geometry">
            <mxPoint x="-120" y="370" as="sourcePoint" />
            <mxPoint x="290" y="370" as="targetPoint" />
          </mxGeometry>
        </mxCell>
        <mxCell id="gA8LrhSrSXOZidAthOIC-22" value="" style="group" vertex="1" connectable="0" parent="1">
          <mxGeometry x="600" y="120" width="80" height="540" as="geometry" />
        </mxCell>
        <mxCell id="gA8LrhSrSXOZidAthOIC-23" style="edgeStyle=orthogonalEdgeStyle;rounded=0;orthogonalLoop=1;jettySize=auto;html=1;exitX=0.5;exitY=1;exitDx=0;exitDy=0;entryX=0.5;entryY=0;entryDx=0;entryDy=0;endArrow=none;endFill=0;" edge="1" parent="gA8LrhSrSXOZidAthOIC-22" source="gA8LrhSrSXOZidAthOIC-24" target="gA8LrhSrSXOZidAthOIC-25">
          <mxGeometry relative="1" as="geometry" />
        </mxCell>
        <mxCell id="gA8LrhSrSXOZidAthOIC-24" value="算子" style="rounded=0;whiteSpace=wrap;html=1;fillColor=#fff2cc;strokeColor=#d6b656;" vertex="1" parent="gA8LrhSrSXOZidAthOIC-22">
          <mxGeometry width="80" height="40" as="geometry" />
        </mxCell>
        <mxCell id="gA8LrhSrSXOZidAthOIC-25" value="算子" style="rounded=0;whiteSpace=wrap;html=1;fillColor=#fff2cc;strokeColor=#d6b656;" vertex="1" parent="gA8LrhSrSXOZidAthOIC-22">
          <mxGeometry y="500" width="80" height="40" as="geometry" />
        </mxCell>
        <mxCell id="gA8LrhSrSXOZidAthOIC-26" value="" style="group" vertex="1" connectable="0" parent="1">
          <mxGeometry x="430" y="120" width="80" height="540" as="geometry" />
        </mxCell>
        <mxCell id="gA8LrhSrSXOZidAthOIC-27" style="edgeStyle=orthogonalEdgeStyle;rounded=0;orthogonalLoop=1;jettySize=auto;html=1;exitX=0.5;exitY=1;exitDx=0;exitDy=0;entryX=0.5;entryY=0;entryDx=0;entryDy=0;endArrow=none;endFill=0;" edge="1" parent="gA8LrhSrSXOZidAthOIC-26" source="gA8LrhSrSXOZidAthOIC-28" target="gA8LrhSrSXOZidAthOIC-29">
          <mxGeometry relative="1" as="geometry" />
        </mxCell>
        <mxCell id="gA8LrhSrSXOZidAthOIC-28" value="CloudDB" style="rounded=0;whiteSpace=wrap;html=1;fillColor=#dae8fc;strokeColor=#6c8ebf;" vertex="1" parent="gA8LrhSrSXOZidAthOIC-26">
          <mxGeometry width="80" height="40" as="geometry" />
        </mxCell>
        <mxCell id="gA8LrhSrSXOZidAthOIC-29" value="CloudDB" style="rounded=0;whiteSpace=wrap;html=1;fillColor=#dae8fc;strokeColor=#6c8ebf;" vertex="1" parent="gA8LrhSrSXOZidAthOIC-26">
          <mxGeometry y="500" width="80" height="40" as="geometry" />
        </mxCell>
        <mxCell id="gA8LrhSrSXOZidAthOIC-30" value="4. 转换库脱敏ID，确定图搜范围" style="html=1;verticalAlign=bottom;endArrow=block;curved=0;rounded=0;" edge="1" parent="1">
          <mxGeometry width="80" relative="1" as="geometry">
            <mxPoint x="230" y="307" as="sourcePoint" />
            <mxPoint x="390" y="307" as="targetPoint" />
          </mxGeometry>
        </mxCell>
        <mxCell id="gA8LrhSrSXOZidAthOIC-31" value="" style="html=1;verticalAlign=bottom;endArrow=block;curved=0;rounded=0;" edge="1" parent="1">
          <mxGeometry width="80" relative="1" as="geometry">
            <mxPoint x="230" y="387" as="sourcePoint" />
            <mxPoint x="640" y="387" as="targetPoint" />
          </mxGeometry>
        </mxCell>
        <mxCell id="gA8LrhSrSXOZidAthOIC-32" value="6.根据图片信息获取特征（涉及到数据库、云库以及特征提取算子）" style="edgeLabel;html=1;align=center;verticalAlign=middle;resizable=0;points=[];" vertex="1" connectable="0" parent="gA8LrhSrSXOZidAthOIC-31">
          <mxGeometry x="-0.0976" y="4" relative="1" as="geometry">
            <mxPoint x="35" y="-16" as="offset" />
          </mxGeometry>
        </mxCell>
        <mxCell id="gA8LrhSrSXOZidAthOIC-35" value="" style="group" vertex="1" connectable="0" parent="1">
          <mxGeometry x="690" y="120" width="80" height="540" as="geometry" />
        </mxCell>
        <mxCell id="gA8LrhSrSXOZidAthOIC-36" style="edgeStyle=orthogonalEdgeStyle;rounded=0;orthogonalLoop=1;jettySize=auto;html=1;exitX=0.5;exitY=1;exitDx=0;exitDy=0;entryX=0.5;entryY=0;entryDx=0;entryDy=0;endArrow=none;endFill=0;" edge="1" parent="gA8LrhSrSXOZidAthOIC-35" source="gA8LrhSrSXOZidAthOIC-37" target="gA8LrhSrSXOZidAthOIC-38">
          <mxGeometry relative="1" as="geometry" />
        </mxCell>
        <mxCell id="gA8LrhSrSXOZidAthOIC-37" value="Redis" style="rounded=0;whiteSpace=wrap;html=1;fillColor=#e1d5e7;strokeColor=#9673a6;" vertex="1" parent="gA8LrhSrSXOZidAthOIC-35">
          <mxGeometry width="80" height="40" as="geometry" />
        </mxCell>
        <mxCell id="gA8LrhSrSXOZidAthOIC-38" value="Redis" style="rounded=0;whiteSpace=wrap;html=1;fillColor=#e1d5e7;strokeColor=#9673a6;" vertex="1" parent="gA8LrhSrSXOZidAthOIC-35">
          <mxGeometry y="500" width="80" height="40" as="geometry" />
        </mxCell>
        <mxCell id="gA8LrhSrSXOZidAthOIC-15" value="5. 获取库资源" style="html=1;verticalAlign=bottom;endArrow=block;curved=0;rounded=0;" edge="1" parent="1">
          <mxGeometry width="80" relative="1" as="geometry">
            <mxPoint x="230" y="330" as="sourcePoint" />
            <mxPoint x="390" y="330" as="targetPoint" />
          </mxGeometry>
        </mxCell>
        <mxCell id="gA8LrhSrSXOZidAthOIC-39" value="7：图搜任务分组，得到jobID" style="html=1;align=left;spacingLeft=2;endArrow=block;rounded=0;edgeStyle=orthogonalEdgeStyle;curved=0;rounded=0;fontSize=12;startSize=8;endSize=8;" edge="1" parent="1">
          <mxGeometry relative="1" as="geometry">
            <mxPoint x="229" y="404" as="sourcePoint" />
            <Array as="points">
              <mxPoint x="259" y="434" />
            </Array>
            <mxPoint x="229" y="434" as="targetPoint" />
          </mxGeometry>
        </mxCell>
      </root>
    </mxGraphModel>
  </diagram>
</mxfile>
